<svg width="36" height="41" viewBox="0 0 36 41" fill="none" xmlns="http://www.w3.org/2000/svg">
<path fill-rule="evenodd" clip-rule="evenodd" d="M23.9922 1.0334C23.5037 1.12838 22.7439 1.34549 22.2961 1.50832C21.8483 1.67115 20.8985 2.09179 20.1929 2.44458C19.4873 2.79738 18.2661 3.51654 17.4791 4.04573C16.6921 4.57493 15.4708 5.51119 14.7653 6.14894C14.0597 6.77312 13.0827 7.73652 12.5942 8.29285C12.1057 8.83562 11.2373 9.93471 10.6403 10.7217C10.0568 11.5087 9.16122 12.8521 8.65917 13.7069C8.14354 14.5618 7.38367 16.0001 6.94946 16.8956C6.52882 17.7912 5.90464 19.2295 5.57899 20.0844C5.23976 20.9392 4.81912 22.2554 4.62915 23.0017C4.37134 24.0601 4.27635 24.8336 4.22208 26.5297C4.1678 27.9544 4.20851 29.0535 4.31706 29.7184C4.41204 30.2748 4.62915 31.1296 4.79198 31.6181C4.95481 32.1066 5.2669 32.8393 5.47043 33.2464C5.67397 33.6535 6.10818 34.3319 6.42027 34.739C6.73236 35.1461 7.28869 35.7295 7.65505 36.028C8.02142 36.3266 8.78129 36.8286 9.33762 37.1407C9.89395 37.4664 11.278 38.0905 12.3907 38.5248C13.5169 38.9725 15.1588 39.556 16.0543 39.8274C16.9499 40.0988 18.4153 40.438 19.3109 40.6008C20.6542 40.8315 21.3191 40.8586 23.1102 40.8044C24.6978 40.7501 25.5798 40.6687 26.3668 40.4516C26.9639 40.3023 27.968 39.9088 28.5921 39.5967C29.3249 39.2303 30.0169 38.7419 30.5054 38.2669C30.926 37.8463 31.4416 37.1678 31.6588 36.7065C31.998 36.0145 32.0658 35.7024 32.1065 34.6033C32.1472 33.572 32.093 33.0564 31.8216 32.0252C31.6452 31.3196 31.2381 30.1391 30.926 29.4199C30.6275 28.6872 30.0576 27.5202 29.6641 26.8418C29.2706 26.1498 28.4972 24.9692 27.9273 24.2229C27.3709 23.4767 26.4211 22.3776 25.824 21.7669C25.227 21.1699 24.2365 20.2879 23.6259 19.7994C23.0288 19.3245 22.4318 18.931 22.3097 18.931C22.1875 18.931 22.0926 18.9581 22.0926 18.9989C22.0926 19.0396 22.4725 19.4331 22.9203 19.8808C23.3816 20.3286 24.0872 21.0885 24.4807 21.577C24.8742 22.0655 25.2134 22.5132 25.2134 22.5947C25.2134 22.6761 24.5893 22.0655 23.8158 21.2378C23.0424 20.41 22.079 19.4873 21.6719 19.1753C21.2648 18.8632 20.5728 18.3882 20.125 18.1169C19.6773 17.8591 18.8224 17.4791 18.2254 17.2756C17.3705 17.0042 16.8549 16.9228 15.7829 16.9228C14.8874 16.9092 14.1682 16.9906 13.6797 17.1399C13.2727 17.262 12.6485 17.547 12.2957 17.7776L11.6444 18.1847C11.4273 17.5063 11.373 17.0856 11.373 16.8278C11.373 16.57 11.4951 15.9594 11.6308 15.4709C11.7801 14.9824 12.2007 14.1276 12.5806 13.5712C12.947 13.0149 13.6662 12.1058 14.1682 11.5494C14.6838 11.0067 15.593 10.179 16.19 9.73118C16.787 9.2834 17.8047 8.65922 18.4696 8.33356C19.1209 8.0079 20.1793 7.57369 20.8442 7.37016C21.9162 7.0445 22.2282 7.00379 24.2636 7.00379C26.0004 6.99022 26.7467 7.0445 27.588 7.24803C28.1851 7.38373 29.162 7.66868 29.7591 7.88578C30.3561 8.10289 31.1431 8.50996 31.5095 8.79491C31.8894 9.06629 32.3779 9.55478 32.595 9.86687C32.8257 10.179 33.1514 10.6674 33.3278 10.9524C33.4906 11.2373 33.8162 11.5766 34.0333 11.7123C34.264 11.8344 34.6032 11.9429 34.7932 11.9429C34.9967 11.9429 35.2953 11.7801 35.5395 11.5359C35.8516 11.2102 35.933 11.0067 35.933 10.5589C35.933 10.1654 35.7973 9.74475 35.5395 9.29697C35.336 8.9306 34.7661 8.26572 34.2912 7.83151C33.8162 7.39729 32.9614 6.81382 32.4051 6.52887C31.8487 6.23035 30.9939 5.87756 30.5054 5.7283C30.0169 5.57904 29.0399 5.38907 28.3343 5.29409C27.5066 5.17197 26.5025 5.14483 25.5527 5.1991C24.725 5.25338 23.5444 5.41621 22.9067 5.5519C22.2689 5.70116 21.292 5.98611 20.7356 6.17608C20.1793 6.37961 19.3245 6.74598 18.836 6.99022C18.3475 7.23447 17.3977 7.80437 16.7328 8.25215C16.0679 8.69993 14.9959 9.54121 14.3717 10.1382C13.7476 10.7217 12.7977 11.7801 12.2685 12.4857C11.7258 13.1913 11.0202 14.2632 10.6945 14.8603C10.1789 15.7694 10.0703 15.8915 10.0432 15.6066C10.0161 15.4166 10.1925 14.6839 10.4231 13.9783C10.6538 13.2727 11.088 12.2279 11.3866 11.6716C11.6851 11.1152 12.255 10.2332 12.662 9.70404C13.0555 9.18841 13.829 8.33356 14.3717 7.81794C14.9281 7.28874 15.8915 6.52887 16.5292 6.1218C17.167 5.71473 18.1847 5.14483 18.8088 4.85988C19.4194 4.57493 20.5185 4.16786 21.2377 3.95075C21.9704 3.74721 22.9881 3.4894 23.5173 3.40799C24.0465 3.313 25.1727 3.19088 26.0276 3.12304C27.2352 3.02805 27.6423 2.94664 27.8323 2.75667C27.968 2.62098 28.0765 2.33603 28.0765 2.10536C28.0765 1.86111 27.9544 1.58973 27.7644 1.41333C27.588 1.2505 27.3166 1.04697 27.1403 0.965553C26.9774 0.884139 26.394 0.816294 25.8512 0.829863C25.322 0.829863 24.4807 0.924846 23.9922 1.0334ZM14.1953 20.9667C13.829 21.0752 13.3405 21.3738 13.0962 21.618C12.8113 21.8894 12.5942 22.2964 12.4856 22.7307C12.3771 23.1242 12.3499 23.6398 12.4042 23.9519C12.4449 24.2504 12.6213 24.766 12.7706 25.1052C12.9334 25.4445 13.3948 26.0551 13.8154 26.4757C14.2903 26.9642 14.9416 27.4256 15.6472 27.7784C16.2443 28.0769 17.1941 28.4975 17.7504 28.6875C18.3068 28.891 19.7722 29.3659 21.007 29.7459C22.5403 30.2208 23.5037 30.4379 24.0329 30.4515C24.7385 30.465 24.8606 30.4243 25.1591 30.0987C25.3491 29.868 25.4848 29.5423 25.4848 29.3117C25.4848 29.0946 25.3898 28.6739 25.2677 28.4025C25.1591 28.1176 24.7928 27.5205 24.4807 27.0728C24.155 26.625 23.1102 25.458 22.1468 24.4675C21.0749 23.3684 20.03 22.4593 19.4466 22.0793C18.9174 21.7537 18.1304 21.3466 17.6826 21.1702C17.2077 20.9938 16.4478 20.8446 15.8508 20.8174C15.1859 20.7767 14.616 20.831 14.1818 20.9667H14.1953Z" fill="#181D27"/>
<path d="M3.63861 19.6366C3.16369 20.2201 2.55308 21.0885 2.26813 21.577C1.98318 22.0655 1.58968 22.8796 1.38614 23.4088C1.1826 23.938 0.911223 24.7793 0.775532 25.3085C0.639841 25.8377 0.463443 26.8961 0.382029 27.6831C0.287045 28.66 0.287045 29.5285 0.382029 30.4647C0.463443 31.211 0.639841 32.283 0.789101 32.8393C0.924792 33.3956 1.20974 34.2505 1.41328 34.739C1.63038 35.2275 1.9289 35.8516 2.1053 36.1366C2.2817 36.408 2.64806 36.8965 2.91945 37.195C3.2044 37.5071 3.80144 38.0227 4.24922 38.3348C4.697 38.6604 5.42973 39.0947 5.87751 39.3253C6.32528 39.5424 7.28869 39.9224 8.00785 40.153C8.74058 40.3837 9.67685 40.6144 10.0975 40.6822C10.6403 40.7501 10.8845 40.7365 11.0066 40.6008C11.1152 40.4832 11.1242 40.3882 11.0338 40.3159C10.9523 40.248 10.3417 39.9088 9.67685 39.556C8.99839 39.2032 8.00785 38.6062 7.45152 38.2127C6.89519 37.8327 6.09461 37.1814 5.68754 36.7743C5.2669 36.3673 4.66986 35.6617 4.37134 35.2139C4.05925 34.7661 3.69288 34.1555 3.54362 33.857C3.3808 33.5585 3.13655 32.9207 2.98729 32.4322C2.83803 31.9438 2.6345 31.0075 2.55308 30.329C2.43096 29.3928 2.41739 28.7686 2.53951 27.6152C2.6345 26.8011 2.82446 25.5391 2.98729 24.8336C3.13655 24.128 3.47578 22.9339 3.73359 22.1876C3.9914 21.4413 4.39848 20.4643 4.61558 20.0165C4.83269 19.5688 4.99552 19.0803 4.96838 18.931C4.94124 18.7817 4.83269 18.6461 4.697 18.6189C4.5613 18.5918 4.18137 18.9446 3.63861 19.6366Z" fill="#181D27"/>
</svg>
